<svg width="7500" height="4224" viewBox="0 0 7500 4224" fill="none" xmlns="http://www.w3.org/2000/svg">
<path d="M8094.13 1818.96C8042.67 1271.64 8613.63 377.744 7759 -316C6962.37 -963.023 5821.34 -1034.03 5042.65 -1034.03C3942.14 -1034.03 3234.65 -358.498 1787.42 -145.327C-189.69 145.576 -842.5 -566.5 -201.372 1393.04C-305.54 2578.9 -2485 5697 4361.6 4712C8900.5 5307.5 8203.17 2978.12 8094.13 1818.96ZM3819.89 4005.74C1889.65 4005.74 324.756 3167.24 324.756 2133.09C324.756 1098.94 1889.65 260.296 3819.89 260.296C5750.14 260.296 7315.02 1098.66 7315.02 2133.09C7315.02 3167.52 5750.14 4005.74 3819.89 4005.74Z" fill="url(#paint0_linear_948_1678)"/>
<defs>
<linearGradient id="paint0_linear_948_1678" x1="3942" y1="-630.778" x2="3942" y2="4618.13" gradientUnits="userSpaceOnUse">
<stop stop-color="white"/>
<stop offset="1" stop-color="#D6D6D6"/>
</linearGradient>
</defs>
</svg>
