<svg width="42" height="44" viewBox="0 0 42 44" fill="none" xmlns="http://www.w3.org/2000/svg">
<path d="M39.6582 20.634V41.5183C39.6582 41.7745 39.5549 42.0202 39.3712 42.2014C39.1875 42.3825 38.9383 42.4844 38.6785 42.4844H26.9916C26.7377 42.4757 26.4968 42.3702 26.3203 42.19C26.1439 42.0098 26.0456 41.7688 26.0457 41.5183V25.0976C26.037 24.8472 25.93 24.6096 25.7472 24.4356C25.5644 24.2616 25.3201 24.1647 25.066 24.1648H16.1829C15.9321 24.1648 15.6915 24.2632 15.5141 24.4381C15.3368 24.613 15.237 24.8502 15.237 25.0976V41.5183C15.237 41.7745 15.1338 42.0202 14.9501 42.2014C14.7664 42.3825 14.5172 42.4844 14.2574 42.4844H2.60425C2.35036 42.4757 2.10945 42.3702 1.93299 42.19C1.75653 42.0098 1.65823 41.7688 1.65838 41.5183V20.634C1.65562 20.4947 1.68487 20.3566 1.74332 20.2298C1.80177 20.103 1.88827 19.9908 1.99649 19.9013L16.8245 3.87981C17.8801 2.97974 19.229 2.48437 20.6245 2.48438C22.02 2.48437 23.3689 2.97974 24.4245 3.87981L39.2863 19.9013C39.3942 19.9932 39.4831 20.1057 39.5469 20.2314C39.6106 20.3572 39.6483 20.4937 39.6582 20.634Z" stroke="white" stroke-width="3" stroke-miterlimit="10"/>
</svg>
